<?xml version="1.0" encoding="utf-8"?>
<!-- Generator: Adobe Illustrator 28.0.0, SVG Export Plug-In . SVG Version: 6.00 Build 0)  -->
<svg version="1.1" id="Layer_1" xmlns="http://www.w3.org/2000/svg" xmlns:xlink="http://www.w3.org/1999/xlink" x="0px" y="0px"
	 viewBox="0 0 259.8 142.97" style="enable-background:new 0 0 259.8 142.97;" xml:space="preserve">
<style type="text/css">
	.st0{fill:#ED4769;}
</style>
<g>
	<g>
		<g>
			<path d="M12.95,16.52c0-5.54,3.66-8.76,7.89-8.76c2.16,0,3.9,1.02,5.03,2.17l-1.99,2.42c-0.84-0.78-1.74-1.33-2.95-1.33
				c-2.29,0-4.1,2.02-4.1,5.37c0,3.43,1.6,5.43,4.04,5.43c1.37,0,2.45-0.67,3.27-1.56l1.99,2.37c-1.39,1.61-3.23,2.45-5.4,2.45
				C16.49,25.08,12.95,22.14,12.95,16.52z"/>
			<path d="M30.03,17.03V8.07h3.78v9.35c0,3.27,1.03,4.4,2.9,4.4c1.88,0,2.96-1.13,2.96-4.4V8.07h3.64v8.97
				c0,5.61-2.28,8.05-6.6,8.05S30.03,22.64,30.03,17.03z"/>
			<path d="M49.1,8.07h6.02c3.54,0,6.45,1.23,6.45,5.2c0,3.84-2.9,5.49-6.45,5.49h-2.24v6.01H49.1V8.07z M54.81,15.76
				c1.99,0,3.05-0.85,3.05-2.49c0-1.65-1.07-2.2-3.05-2.2h-1.93v4.7H54.81z M54.43,17.77l2.61-2.42l5.33,9.42h-4.23L54.43,17.77z"/>
			<path d="M66.74,8.07h6.02c3.54,0,6.45,1.23,6.45,5.2c0,3.84-2.9,5.49-6.45,5.49h-2.24v6.01h-3.78V8.07z M72.45,15.76
				c1.99,0,3.05-0.85,3.05-2.49c0-1.65-1.07-2.2-3.05-2.2h-1.93v4.7H72.45z M72.06,17.77l2.61-2.42l5.33,9.42h-4.23L72.06,17.77z"/>
			<path d="M84.37,8.07h3.78v16.71h-3.78V8.07z"/>
			<path d="M93.22,16.52c0-5.54,3.66-8.76,7.89-8.76c2.16,0,3.9,1.02,5.02,2.17l-1.99,2.42c-0.84-0.78-1.74-1.33-2.95-1.33
				c-2.29,0-4.1,2.02-4.1,5.37c0,3.43,1.6,5.43,4.04,5.43c1.37,0,2.45-0.67,3.27-1.56l1.99,2.37c-1.39,1.61-3.23,2.45-5.4,2.45
				C96.76,25.08,93.22,22.14,93.22,16.52z"/>
			<path d="M110.3,17.03V8.07h3.78v9.35c0,3.27,1.03,4.4,2.9,4.4c1.88,0,2.96-1.13,2.96-4.4V8.07h3.64v8.97
				c0,5.61-2.28,8.05-6.6,8.05C112.66,25.08,110.3,22.64,110.3,17.03z"/>
			<path d="M129.37,8.07h3.78v13.54h6.6v3.17h-10.37V8.07z"/>
			<path d="M143.53,17.03V8.07h3.78v9.35c0,3.27,1.03,4.4,2.9,4.4c1.88,0,2.96-1.13,2.96-4.4V8.07h3.64v8.97
				c0,5.61-2.28,8.05-6.6,8.05C145.88,25.08,143.53,22.64,143.53,17.03z"/>
			<path d="M162.59,8.07h4.12l2.71,7.42c0.33,0.99,0.63,2.06,0.96,3.08h0.1c0.34-1.03,0.62-2.1,0.95-3.08l2.63-7.42h4.12v16.71
				h-3.44v-6.13c0-1.63,0.3-4.06,0.48-5.68h-0.1l-1.37,3.95l-2.36,6.4h-2.1l-2.37-6.4l-1.33-3.95h-0.1
				c0.18,1.62,0.48,4.05,0.48,5.68v6.13h-3.39V8.07z"/>
		</g>
	</g>
	<path class="st0" d="M81.65,34.19c11.11,0,20.23,4.23,27.36,12.68c5.55,6.77,8.34,14.43,8.34,23.01c0,11.11-4.23,20.23-12.68,27.36
		c-6.64,5.44-14.31,8.15-23.01,8.15c-10.99,0-20.05-4.23-27.18-12.68c-5.44-6.64-8.21-14.25-8.33-22.83
		c0-11.11,4.29-20.23,12.87-27.36C65.65,37.09,73.2,34.31,81.65,34.19z M74.59,38c-0.72,0-1.21,0-1.45,0
		c-5.32,1.45-7.01,9-5.07,22.65c0.6,3.99,1.45,8.09,2.54,12.32c4.11,14.86,9,24.1,14.68,27.72c1.81,0.97,3.5,1.27,5.07,0.91
		c5.19-1.45,6.95-8.51,5.25-21.2c-0.61-4.35-1.51-8.88-2.72-13.59c-3.99-14.49-8.76-23.67-14.31-27.54
		C77.24,38.3,75.91,37.88,74.59,38z"/>
	<path class="st0" d="M206.87,0.18c2.41-0.36,4.83-0.18,7.25,0.54c5.19,1.69,8.45,5.01,9.78,9.96c0.36,1.33,0.54,2.66,0.54,3.99
		c0,5.68-2.42,9.97-7.25,12.86c-2.3,1.33-4.77,1.99-7.43,1.99c-12.93,0-23.44,8.82-31.53,26.45c-0.24,0.61-0.48,1.15-0.72,1.63
		l-17.96,46.7H147.6l-22.65-51.46c-4.47-8.82-7.73-13.95-9.78-15.4c-0.6-0.36-1.15-0.54-1.63-0.54c-0.97-0.36-1.51-0.84-1.63-1.45
		c0.24-0.72,0.79-1.15,1.63-1.27h39.86c1.21,0.24,1.87,0.67,1.99,1.27c-0.12,0.73-0.67,1.21-1.63,1.45
		c-4.23,1.33-4.83,5.98-1.81,13.95c0.24,0.61,0.48,1.33,0.72,2.17l12.87,27.9l9.62-24.95c1.09-2.78,2.54-6.94,4.35-12.5
		c5.8-17.03,10.69-28.33,14.68-33.88C198.05,4.29,202.28,1.15,206.87,0.18z"/>
	<path class="st0" d="M225.56,34.19c9.78,0,17.63,2.9,23.55,8.7c0.85,0.85,1.57,1.63,2.17,2.35c3.74,4.83,4.83,9.78,3.26,14.86
		c-1.81,4.95-5.92,7.85-12.32,8.7c-3.74,0.48-9.24,1.15-16.49,1.99h-0.18h-0.18h-0.18h-0.18l-0.18,0.18h-0.18h-0.18h-0.18h-0.18
		h-0.18h-0.18h-0.18h-0.18l-0.18,0.18h-0.18h-0.18h-0.18h-0.18h-0.18h-0.18h-0.18l-0.18,0.18h-0.18h-0.18h-0.18h-0.18h-0.18h-0.18
		h-0.18h-0.18l-0.18,0.18h-0.18h-0.18h-0.18h-0.18h-0.18h-0.18h-0.18l-0.18,0.18h-0.18h-0.18h-0.18h-0.18h-0.18h-0.18h-0.18
		l-0.18,0.18h-0.18h-0.18h-0.18h-0.18h-0.18h-0.18h-0.36c2.05,9.67,7.07,16.19,15.04,19.57c7.25,3.02,13.83,2.54,19.75-1.45
		c2.42-1.69,4.35-3.74,5.8-6.16c1.21-1.69,2.11-2.47,2.72-2.36c0.48,0.48,0.72,1.03,0.72,1.63c-4.23,14.86-15.52,22.29-33.88,22.29
		c-11.11,0-20.29-3.81-27.54-11.42c-3.62-3.99-6.16-8.52-7.61-13.59c-0.72-2.05-1.21-4.35-1.45-6.88
		c-1.33-15.1,2.9-26.09,12.68-32.98C208.16,36.31,216.01,34.19,225.56,34.19z M225.37,36.91c-4.83,0-8.21,4.05-10.15,12.14
		c-1.69,7.01-1.69,13.77,0,20.29c14.01-1.69,20.9-6.95,20.66-15.76c0-0.6,0-1.15,0-1.63c-0.85-8.7-3.5-13.59-7.97-14.68
		C227.07,37.03,226.22,36.91,225.37,36.91z"/>
	<path class="st0" d="M109.05,142.92c-2.9,0-6.95-1.75-12.14-5.25c-0.85-0.48-1.51-0.91-1.99-1.27c-5.44-3.14-10.93-5.32-16.49-6.52
		c-9.18-2.06-20.47-1.93-33.88,0.36c-12.92,2.29-23.49,6.4-31.71,12.32c-0.48,0.48-1.02,0.54-1.63,0.18
		c-0.36-0.36-0.54-0.79-0.54-1.27V53.62c0-8.58-2.11-13.71-6.34-15.4c-0.97-0.36-1.99-0.67-3.08-0.91
		c-0.17-0.05-0.32-0.11-0.46-0.17c-0.88-0.4-1.06-1.63-0.32-2.26c0.18-0.15,0.38-0.25,0.61-0.29h44.21
		c0.14,0.04,0.27,0.09,0.39,0.14c1.15,0.51,0.92,2.32-0.32,2.56c-0.02,0-0.05,0.01-0.07,0.01c-4.83,0.6-7.73,3.14-8.7,7.61
		c-0.48,2.17-0.72,5.07-0.72,8.7v55.6c0.12,9.18,1.87,14.86,5.25,17.03c3.26,2.05,9.72,1.02,19.39-3.08
		c12.44-5.2,19.93-8.22,22.47-9.06c8.82-2.78,16.55-3.5,23.19-2.17c10.63,2.17,16.49,7.61,17.57,16.31c0,5.56-2.48,9.78-7.43,12.68
		C114,142.25,111.59,142.92,109.05,142.92z"/>
	<g>
		<g>
			<path d="M1.4,24.25v1.79H0.47v-4.69H1.4v1.79h5.29v1.1H1.4z"/>
			<path d="M0.47,19.61v-1.1h2.5v-2.51h-2.5v-1.1h6.21v1.1H3.93v2.51h2.76v1.1H0.47z"/>
			<path d="M0.47,12.6V8.86H1.4v2.64h1.59V9.26h0.93v2.23h1.84V8.76h0.93v3.83H0.47z"/>
		</g>
	</g>
	<g>
		<g>
			<path d="M198.91,16.45c0-2.79,1.58-4.4,3.89-4.4c2.31,0,3.88,1.61,3.88,4.4c0,2.79-1.58,4.47-3.88,4.47
				C200.48,20.93,198.91,19.25,198.91,16.45z M204.7,16.45c0-1.71-0.74-2.73-1.9-2.73c-1.17,0-1.9,1.01-1.9,2.73
				c0,1.71,0.74,2.8,1.9,2.8C203.96,19.26,204.7,18.17,204.7,16.45z"/>
			<path d="M209.28,12.22h5.4v1.62h-3.46v1.98h2.96v1.62h-2.96v3.33h-1.93V12.22z"/>
		</g>
	</g>
</g>
</svg>
